<svg xmlns="http://www.w3.org/2000/svg" viewBox="0 0 64 64">
  <defs>
    <linearGradient id="ocrBg" x1="0%" y1="0%" x2="100%" y2="100%">
      <stop offset="0%" stop-color="#312e81"/>
      <stop offset="50%" stop-color="#4338ca"/>
      <stop offset="100%" stop-color="#4f46e5"/>
    </linearGradient>
    <linearGradient id="scanGrad" x1="0%" y1="0%" x2="100%" y2="0%">
      <stop offset="0%" stop-color="#38bdf8" stop-opacity="0.2"/>
      <stop offset="50%" stop-color="#38bdf8" stop-opacity="1"/>
      <stop offset="100%" stop-color="#0284c7" stop-opacity="0.2"/>
    </linearGradient>
    <filter id="scanGlow" x="-20%" y="-20%" width="140%" height="140%">
      <feGaussianBlur stdDeviation="1.5" result="blur"/>
      <feComposite in="SourceGraphic" in2="blur" operator="over"/>
    </filter>
  </defs>

  <rect x="3" y="3" width="58" height="58" rx="16" fill="url(#ocrBg)" stroke="#818cf8" stroke-width="1.8"/>

  <path d="M 14 22 L 14 15 L 21 15" fill="none" stroke="#38bdf8" stroke-width="3" stroke-linecap="round" stroke-linejoin="round"/>
  <path d="M 43 15 L 50 15 L 50 22" fill="none" stroke="#38bdf8" stroke-width="3" stroke-linecap="round" stroke-linejoin="round"/>
  <path d="M 14 42 L 14 49 L 21 49" fill="none" stroke="#38bdf8" stroke-width="3" stroke-linecap="round" stroke-linejoin="round"/>
  <path d="M 43 49 L 50 49 L 50 42" fill="none" stroke="#38bdf8" stroke-width="3" stroke-linecap="round" stroke-linejoin="round"/>

  <rect x="22" y="21" width="20" height="22" rx="3" fill="#ffffff" opacity="0.15"/>
  <line x1="26" y1="26" x2="38" y2="26" stroke="#ffffff" stroke-width="2" stroke-linecap="round"/>
  <line x1="26" y1="32" x2="34" y2="32" stroke="#ffffff" stroke-width="2" stroke-linecap="round"/>
  <line x1="26" y1="38" x2="38" y2="38" stroke="#38bdf8" stroke-width="2" stroke-linecap="round"/>

  <line x1="12" y1="32" x2="52" y2="32" stroke="url(#scanGrad)" stroke-width="2.5" filter="url(#scanGlow)"/>
  <circle cx="32" cy="32" r="3" fill="#38bdf8" filter="url(#scanGlow)"/>
</svg>
